<svg xmlns="http://www.w3.org/2000/svg" width="24" height="24" viewBox="0 0 24 24" fill="#FFD700">
  <path d="M12,4 C12.5523,4 13,4.44772 13,5 L13,6 C13,6.55228 12.5523,7 12,7 C11.4477,7 11,6.55228 11,6 L11,5 C11,4.44772 11.4477,4 12,4 Z M12,17 C12.5523,17 13,17.4477 13,18 L13,19 C13,19.5523 12.5523,20 12,20 C11.4477,20 11,19.5523 11,19 L11,18 C11,17.4477 11.4477,17 12,17 Z M19,12 C19,12.5523 18.5523,13 18,13 L17,13 C16.4477,13 16,12.5523 16,12 C16,11.4477 16.4477,11 17,11 L18,11 C18.5523,11 19,11.4477 19,12 Z M6,12 C6,12.5523 5.55228,13 5,13 L4,13 C3.44772,13 3,12.5523 3,12 C3,11.4477 3.44772,11 4,11 L5,11 C5.55228,11 6,11.4477 6,12 Z M16.95,7.05 C17.3642,7.05 17.7,7.38579 17.7,7.8 C17.7,8.21421 17.3642,8.55 16.95,8.55 C16.5358,8.55 16.2,8.21421 16.2,7.8 C16.2,7.38579 16.5358,7.05 16.95,7.05 Z M7.05,16.95 C7.46421,16.95 7.8,17.2858 7.8,17.7 C7.8,18.1142 7.46421,18.45 7.05,18.45 C6.63579,18.45 6.3,18.1142 6.3,17.7 C6.3,17.2858 6.63579,16.95 7.05,16.95 Z M17.7,16.95 C18.1142,16.95 18.45,17.2858 18.45,17.7 C18.45,18.1142 18.1142,18.45 17.7,18.45 C17.2858,18.45 16.95,18.1142 16.95,17.7 C16.95,17.2858 17.2858,16.95 17.7,16.95 Z M7.8,7.05 C8.21421,7.05 8.55,7.38579 8.55,7.8 C8.55,8.21421 8.21421,8.55 7.8,8.55 C7.38579,8.55 7.05,8.21421 7.05,7.8 C7.05,7.38579 7.38579,7.05 7.8,7.05 Z M12,8 C14.2091,8 16,9.79086 16,12 C16,14.2091 14.2091,16 12,16 C9.79086,16 8,14.2091 8,12 C8,9.79086 9.79086,8 12,8 Z" fill="#FFD700" />
</svg> 